<?xml version="1.0" encoding="UTF-8"?>
<svg width="64px" height="48px" viewBox="0 0 64 48" version="1.1" xmlns="http://www.w3.org/2000/svg" xmlns:xlink="http://www.w3.org/1999/xlink">
    <title>Icon/Large/Contact</title>
    <g id="Icon/Large/Contact" stroke="none" stroke-width="1" fill="none" fill-rule="evenodd">
        <g id="envelope" fill="#3E3E40" fill-rule="nonzero">
            <path d="M58,0 L6,0 C2.6875,0 0,2.6875 0,6 L0,42 C0,45.3125 2.6875,48 6,48 L58,48 C61.3125,48 64,45.3125 64,42 L64,6 C64,2.6875 61.3125,0 58,0 Z M6,4 L58,4 C59.1,4 60,4.9 60,6 L60,11.175 C57.2625,13.4875 53.35,16.675 41.175,26.3375 C39.0625,28.0125 34.9,32.05 32,32 C29.1,32.05 24.925,28.0125 22.825,26.3375 C10.65,16.675 6.7375,13.4875 4,11.175 L4,6 C4,4.9 4.9,4 6,4 Z M58,44 L6,44 C4.9,44 4,43.1 4,42 L4,16.375 C6.85,18.7125 11.35,22.325 20.3375,29.4625 C22.9,31.5125 27.425,36.025 32,36 C36.55,36.0375 41.0375,31.5625 43.6625,29.4625 C52.65,22.325 57.15,18.7125 60,16.375 L60,42 C60,43.1 59.1,44 58,44 Z" id="Shape"></path>
        </g>
    </g>
</svg>