<?xml version="1.0" encoding="UTF-8"?>
<svg width="52px" height="62px" viewBox="0 0 52 62" version="1.1" xmlns="http://www.w3.org/2000/svg" xmlns:xlink="http://www.w3.org/1999/xlink">
    <!-- Generator: sketchtool 63.1 (101010) - https://sketch.com -->
    <title>5C55E7A5-BDFE-4449-AC0D-54238888D780</title>
    <desc>Created with sketchtool.</desc>
    <g id="Pages" stroke="none" stroke-width="1" fill="none" fill-rule="evenodd">
        <g id="1.-Landing" transform="translate(-258.000000, -247.000000)" fill="#3E3E40">
            <g id="1-Documents" transform="translate(258.000000, 247.000000)">
                <g id="Icon/Docs">
                    <path d="M4,24.6255 C4,23.0345 4.062,22.9735 5.651,22.9735 L9.549,22.9775 L9.549,46.8465 C9.549,50.6495 11.398,52.4995 15.201,52.4995 L28.007,52.4995 L28.002,56.2795 C28.002,57.8705 27.94,57.9325 26.35,57.9325 L5.653,57.9325 C4.062,57.9325 4,57.8705 4,56.2795 L4,24.6255 Z M13.549,15.1925 C13.549,13.6025 13.61,13.5405 15.199,13.5405 L19.573,13.5445 L19.573,37.3065 C19.573,41.1095 21.422,42.9585 25.225,42.9585 L37.556,42.9585 L37.55,46.8465 C37.55,48.4375 37.488,48.4995 35.898,48.4995 L15.201,48.4995 C13.611,48.4995 13.549,48.4375 13.549,46.8465 L13.549,15.1925 Z M23.573,5.6525 C23.573,4.0625 23.634,4.0005 25.223,4.0005 L37.289,4.0125 C39.028,4.0125 39.603,4.5275 39.657,4.5825 L46.551,11.5425 C47.693,12.6855 47.613,13.5235 47.608,13.5585 L47.574,37.3065 C47.574,38.8965 47.513,38.9585 45.922,38.9585 L25.225,38.9585 C23.635,38.9585 23.573,38.8965 23.573,37.3065 L23.573,5.6525 Z M49.379,8.7145 L42.913,2.2535 C42.439,1.5795 40.942,0.0125 37.291,0.0125 L25.225,0.0005 C21.422,0.0005 19.573,1.8495 19.573,5.6525 L19.573,9.5445 L15.201,9.5405 C11.398,9.5405 9.549,11.3895 9.549,15.1925 L9.549,18.9775 L5.653,18.9735 C1.849,18.9735 0,20.8225 0,24.6255 L0,56.2795 C0,60.0835 1.849,61.9325 5.653,61.9325 L26.35,61.9325 C30.153,61.9325 32.002,60.0835 32.002,56.2795 L32.002,52.4995 L35.898,52.4995 C39.701,52.4995 41.55,50.6495 41.55,46.8465 L41.55,42.9585 L45.922,42.9585 C49.725,42.9585 51.574,41.1095 51.574,37.3065 L51.57,14.1105 C51.686,13.2625 51.705,11.0405 49.379,8.7145 L49.379,8.7145 Z" id="Icon"></path>
                </g>
            </g>
        </g>
    </g>
</svg>