<svg xmlns="http://www.w3.org/2000/svg" width="285" height="47" fill-rule="evenodd" xmlns:v="https://vecta.io/nano"><path d="M11.835 46.544v-.637l.9-.004c2.22-.05 7.872-.573 9.098-3.68l.118-.357c.103-.397.154-.823.154-1.28 0-1.79-1.183-2.683-3.548-2.683H4.502c-1.243 0-2.252-.334-3.025-1S.32 35.354.32 34.263c0-1.757 1.09-3.486 3.274-5.184l.592.364c-.335.454-.5.895-.5 1.32 0 .304.09.523.273.66s.484.205.91.205h13.917c2.456 0 4.435.623 5.937 1.866s2.252 2.88 2.252 4.912c0 1.546-.577 2.917-1.73 4.115s-2.775 2.145-4.867 2.843a23.07 23.07 0 0 1-6.638 1.172l-.65.01h-1.252zm137.09-35.02v22.74c0 2.64-1.016 5.034-3.048 7.187a16.15 16.15 0 0 1-1.521 1.413c-1.123 1.037-2.627 1.87-4.512 2.5-2.092.698-4.534 1.093-7.323 1.182v-.636l.482-.02.266-.022c1.838-.175 6.52-1.123 7.648-6.227l.06-.298c.144-.76.216-1.54.216-2.35v-21.56l-2.73-1.547v-.454l10.006-1.9h.456zm102.005.025l.027.005c1.216.08 2.46.25 3.735.515 1.44.303 2.72.698 3.843 1.183l-.5 4.822-.5-.092c-5.786-7.53-9.05-5.828-9.503-5.533-.76.533-1.335 1.09-1.73 1.667-.456.668-.682 1.455-.682 2.366 0 1.06.515 1.955 1.546 2.683.95.672 2.37 1.447 4.25 2.325l.48.222c1.82.85 3.298 1.608 4.435 2.275a10.38 10.38 0 0 1 2.912 2.523c.803 1.016 1.205 2.206 1.205 3.57 0 2.214-1.063 3.957-3.184 5.23-1.848 1.11-4.188 1.79-7.022 2.05l-.956.073c-.374.022-1.002.046-1.806.032l-.68-.02-.695-.04-.367-.027a24.25 24.25 0 0 1-3.53-.589c-1.546-.38-2.82-.858-3.82-1.433l.5-4.805.5.09c3.674 5.573 7.44 6.146 9.232 6.035l-.037.004c1.824-.11 2.91-1.066 3.654-1.823s1.115-1.683 1.115-2.775-.523-2.017-1.57-2.776-2.66-1.637-4.842-2.637c-1.79-.818-3.238-1.554-4.344-2.206s-2.046-1.455-2.82-2.4-1.16-2.085-1.16-3.388c0-2.152.864-3.843 2.592-5.072 1.53-1.087 3.58-1.752 6.155-1.995l.56-.047.47-.027.51-.015c1.156-.023 2.026.04 2.026.04zm-185.596-.055l.583.01.567.025.4.024c1.976.15 3.72.702 5.232 1.654 1.638 1.03 2.903 2.44 3.8 4.23s1.34 3.835 1.34 6.14H63.782V22.21h5.776c0-2.76-.258-4.92-.773-6.482-.422-1.278-1.037-2.297-1.846-3.057-.365-.32-.936-.695-1.612-.695-.703 0-1.28.39-1.517.575-.974.806-1.704 2.017-2.2 3.633-.56 1.864-.842 4.48-.842 7.845 0 3.032.712 5.457 2.138 7.277s3.366 2.73 5.823 2.73c1.303 0 2.645-.166 4.025-.5s2.54-.774 3.48-1.318l.41.498c-1.577 1.455-3.33 2.61-5.253 3.457s-4.178 1.274-6.755 1.274c-2.334 0-4.397-.523-6.185-1.57s-3.177-2.51-4.16-4.39-1.48-4.063-1.48-6.55c0-2.517.47-4.747 1.4-6.687s2.274-3.493 4.002-4.66c1.596-1.078 3.436-1.748 5.522-2.012l.526-.057c.343-.027.695-.03 1.053-.03zm157.976 0l.583.01.486.02c2.184.092 4.094.653 5.732 1.683s2.903 2.44 3.798 4.23 1.34 3.835 1.34 6.14h-13.492V22.21h5.776c0-2.76-.258-4.92-.772-6.482-.424-1.28-1.04-2.302-1.852-3.063-.365-.32-.934-.69-1.606-.69-.445 0-.84.156-1.13.318l.112-.09c-1.212.79-2.1 2.114-2.66 3.98s-.84 4.48-.84 7.845c0 3.032.712 5.457 2.136 7.277 1.344 1.716 3.145 2.622 5.405 2.72l.39.01a17.08 17.08 0 0 0 4.025-.5c1.38-.334 2.54-.774 3.48-1.318l.01.01.02-.01.4.498a19 19 0 0 1-5.254 3.457c-1.777.784-3.832 1.206-6.166 1.267l-.617.008c-2.334 0-4.397-.523-6.185-1.57s-3.177-2.51-4.163-4.39-1.48-4.063-1.48-6.55c0-2.517.47-4.747 1.4-6.687s2.275-3.493 4.003-4.66 3.744-1.857 6.05-2.07c.342-.027.694-.03 1.052-.03zm-130.738.03c1.85 0 3.51.303 4.98.91s2.615 1.463 3.435 2.57 1.227 2.39 1.227 3.844v14.782l3.093 1.455v.454l-8.78 1.9h-.454L94.5 33.294l-2.82 2.042c-1.88 1.407-3.786 2.11-5.713 2.11-2.002 0-3.616-.514-4.844-1.546S79.3 33.52 79.3 31.853c0-1.607.53-3.04 1.593-4.297s2.584-2.298 4.57-3.117c1.806-.745 3.88-1.24 6.225-1.482l.71-.065 1.358-.092a16.53 16.53 0 0 1 .737-.028l-.002-3.018c0-1.515-.576-2.744-1.73-3.684s-2.683-1.41-4.594-1.41c-1.213 0-2.342.098-3.388.295s-2.145.493-3.298.887l-.18-.638c1.638-1.12 3.457-2.015 5.457-2.683s3.94-1 5.823-1zm73.68 0c1.85 0 3.51.303 4.98.91s2.614 1.463 3.434 2.57 1.227 2.39 1.227 3.844v14.782l3.093 1.455v.454l-8.778 1.9h-.456l-1.563-4.155-2.82 2.044c-1.436 1.074-2.886 1.74-4.35 1.993-.32.056-.643.092-.966.108l-.396.01a10.72 10.72 0 0 1-.879-.035c-1.602-.132-2.922-.635-3.966-1.51-1.227-1.03-1.84-2.38-1.84-4.047 0-1.483.45-2.82 1.357-4.004l.236-.293c.892-1.058 2.11-1.962 3.658-2.71.292-.14.596-.277.912-.407 1.806-.745 3.88-1.24 6.225-1.482l.712-.065 1.358-.092c.307-.017.577-.028.737-.028l-.002-3.018c0-1.515-.577-2.744-1.73-3.684s-2.684-1.41-4.594-1.41a18.31 18.31 0 0 0-3.387.295 22.9 22.9 0 0 0-2.613.662l-.686.224-.183-.638c1.638-1.12 3.457-2.015 5.46-2.683 1.778-.592 3.51-.92 5.192-.987l.63-.012zm-48.53-6.368l-.001 6.82h-.03v1.366l.03-.001.001 17.01c0 1.212.28 2.175.842 2.887s1.387 1.068 2.478 1.068c.85 0 1.766-.128 2.75-.386s1.888-.63 2.707-1.115l.363.546c-1.1 1.243-2.44 2.237-4.047 2.98s-3.274 1.113-5.003 1.113c-2.305 0-4.185-.612-5.64-1.842s-2.183-2.825-2.183-4.798V13.342h-3.457v-1.366h2.82l7.915-6.82h.454zM191.222.15v35.022l3.093 1.365v.454h-13.69v-.454l2.865-1.365V4.998l-2.773-1.572V2.97l10.05-2.82h.454zM39.175 11.523l.55 5.57c.6-3.076 3.4-5.408 7.624-5.562l.448-.008c.157 0 .313.004.467.013.99.053 1.862.27 2.62.652a6.09 6.09 0 0 1 .435.232l-.816 6.242-.504-.136a4.67 4.67 0 0 0-.405-.378c-.684-.524-1.488-.95-2.392-1.24-.918-.284-1.957-.427-3.115-.427a10.94 10.94 0 0 0-2.07.213c-.833.18-1.576.467-2.247.858l.087.883v16.737l3.548 1.365v.456H29.26v-.456l2.865-1.365V15.46l-2.775-1.572v-.456l9.37-1.908h.454zm169.735.453v.453l-3.405 1.9-6.357 5.892 9.31 14.966 2.874 1.36v.454h-13.97v-.454l2.46-1.36-7.005-10.967 10.643-9.892-3.326-1.9v-.453h8.777zm-114.426 20.8l-.003-9.56-.505.05c-.452.052-1.115.148-1.585.298-1.73.546-3.056 1.388-3.98 2.525s-1.388 2.525-1.388 4.16c0 1.213.295 2.183.887 2.91s1.463 1.09 2.615 1.09c.582 0 1.1-.074 1.586-.22l.28-.097.133-.052c.893-.383 1.782-.98 1.962-1.106zm73.682-.001l-.004-9.56-.505.05c-.402.046-.97.127-1.422.25l-.165.048c-1.73.546-3.054 1.388-3.98 2.525s-1.388 2.525-1.388 4.16c0 1.213.295 2.183.887 2.91.53.65 1.283 1.01 2.26 1.08a5.07 5.07 0 0 0 .355.012l.343-.01.33-.027c.323-.035.628-.097.913-.186l.28-.097.133-.052.4-.2c.742-.367 1.402-.812 1.553-.916zM26.78 9.267l-.66 4.956-.44.014c-.618-.35-1.385-.553-2.303-.6-.87-.053-1.815.068-2.832.362.757.574 1.384 1.217 1.88 1.903l.263.386.103.166c.58.935.916 1.933 1.012 2.99l.02.314.007.325c0 1.61-.456 3.032-1.365 4.275a8.21 8.21 0 0 1-.308.395c-.76.93-1.77 1.733-3.022 2.364l-.468.22c-1.51.69-3.248 1.1-5.217 1.227a21.44 21.44 0 0 1-1.537.054c-4.733 0-8.08-1.388-9.997-3.517-1.213-1.3-1.85-2.87-1.914-4.71L0 20.05l.008-.357.032-.444.027-.228c.172-1.377.694-2.595 1.565-3.652 1.93-2.4 5.494-3.876 10.286-3.876 2.725 0 4.987.526 6.782 1.385.197-.737.495-1.424.892-1.948.69-.9 1.54-1.52 2.55-1.826 1.132-.346 3.478-.38 4.64.163zm-14.864 2.71c-.325 0-.8.1-1.33.432a4.24 4.24 0 0 0-.433.327c-1.076.957-2.15 3.026-2.15 7.33 0 4.026.935 6.184 2.048 7.214l.13.114c.586.49 1.21.685 1.77.685.502 0 1.02-.154 1.505-.5l.206-.16.136-.12c1.09-1.02 1.956-3.123 2.024-6.77l.003-.456a28.6 28.6 0 0 0-.013-.875c-.118-3.22-.885-5.103-1.788-6.134l-.13-.142-.124-.125c-.633-.6-1.306-.82-1.856-.82zm114.22 0v1.366l-8.414-.001v-1.366h8.414zm18.92-11.37c1.304 0 2.35.357 3.14 1.068s1.182 1.646 1.182 2.798c0 1.182-.395 2.13-1.182 2.842s-1.835 1.07-3.14 1.07c-1.335 0-2.397-.356-3.184-1.07s-1.182-1.66-1.182-2.842c0-1.152.4-2.085 1.205-2.798s1.857-1.068 3.16-1.068z" fill="#fff"/><path fill="#f34300" d="M273.935 0l2.698 7.763 8.215.167-6.55 4.967 2.38 7.866-6.746-4.694-6.748 4.694 2.38-7.866-6.55-4.967 8.218-.167z"/></svg>