<?xml version="1.0" encoding="UTF-8"?>
<svg width="66px" height="45px" viewBox="0 0 66 45" version="1.1" xmlns="http://www.w3.org/2000/svg" xmlns:xlink="http://www.w3.org/1999/xlink">
    <!-- Generator: sketchtool 63.1 (101010) - https://sketch.com -->
    <title>CE7FDA14-8A5F-4261-8179-24EDBAF17995</title>
    <desc>Created with sketchtool.</desc>
    <g id="Pages" stroke="none" stroke-width="1" fill="none" fill-rule="evenodd">
        <g id="1.-Landing" transform="translate(-257.000000, -1196.000000)" fill="#4B4B4D">
            <g id="3-Sites" transform="translate(257.000000, 1186.000000)">
                <g id="Icon/Sites" transform="translate(0.000000, 10.000000)">
                    <path d="M33.4670752,14 C29.324898,14.019368 25.9819208,17.6169161 26,22.0353779 C26.0182264,26.4533301 29.3908213,30.0192851 33.5329984,30 C37.6617998,29.9805579 41,26.4049212 41,22.0002177 C40.9861466,17.5741125 37.6164179,13.9954183 33.4670752,14 M33.4490355,34 C27.0979731,33.9718104 21.9719319,28.8000926 22,22.4490307 C22.0282994,16.0979687 27.2000177,10.9724139 33.5510801,11 C39.8822196,11.0282955 45,16.1684281 45,22.500053 C44.9786192,28.8622912 39.8112743,34.0063112 33.4490355,34 M33.0007375,4 C17.085069,4 4.19913024,19.5392999 4,22.5125715 C4.19962192,25.4602071 17.0860524,41 33.0007375,41 C48.8431457,41 61.7812026,25.4582351 62,22.4849636 C61.7802192,19.5407789 48.8421624,4 33.0007375,4 M33.0004927,45 C15.2188316,45 0,27.8461674 0,22.4990108 C0,17.1518542 15.2188316,0 33.0004927,0 C50.7821537,0 66,17.1503704 66,22.4995054 C66,27.8486404 50.7791977,45 33.0004927,45" id="Icon"></path>
                </g>
            </g>
        </g>
    </g>
</svg>