<?xml version="1.0" encoding="UTF-8"?>
<svg width="59px" height="74px" viewBox="0 0 59 74" version="1.1" xmlns="http://www.w3.org/2000/svg" xmlns:xlink="http://www.w3.org/1999/xlink">
    <!-- Generator: sketchtool 63.1 (101010) - https://sketch.com -->
    <title>370DFF77-41ED-4389-B69B-56E5688155EB</title>
    <desc>Created with sketchtool.</desc>
    <g id="Pages" stroke="none" stroke-width="1" fill="none" fill-rule="evenodd">
        <g id="1.-Landing" transform="translate(-255.000000, -1646.000000)" fill="#3E3E40">
            <g id="4-Timeline" transform="translate(255.000000, 1646.000000)">
                <g id="Icon/Timeline" transform="translate(0.000000, 0.500000)">
                    <g>
                        <path d="M29.5150701,37.0033165 C24.4215281,37.0022718 19.3279861,36.9954811 14.2344441,36.9954811 C5.506497,36.9954811 -0.0507649611,31.1607122 0.00034962368,23.390597 C0.0509372539,15.7557732 6.05611053,10.0792797 14.2038807,10.0176411 C19.2968958,9.97950877 24.3909648,10.0165964 29.4845068,10.0066715 C31.0279565,10.0040597 32.8675546,10.0009256 32.8949562,11.9461967 C32.9249926,14.1056358 30.9726262,14.0194463 29.3622533,14.0194463 C24.1807099,14.0194463 18.9991665,13.9933283 13.8176231,14.0278041 C8.13073032,14.0654141 4.04103659,18.0034913 4.00573064,23.4104467 C3.96937078,28.9610514 8.06169929,32.9675578 13.8887619,32.9847957 C24.3393232,33.015615 34.7914654,32.8918155 45.2399188,33.0396436 C50.7313115,33.116953 55.0749973,35.5328712 57.5269165,40.5872332 C59.9040082,45.4869764 59.3702033,50.248294 56.1715896,54.6220201 C53.573177,58.1751174 49.8260037,59.8262996 45.5033961,59.9433084 C39.9745897,60.0932259 34.4389328,59.8983853 28.9090725,59.8983853 C26.5678137,59.8983853 26.1004051,58.7935925 26.1004051,58.0340801 C26.1004051,55.9179969 27.5084275,55.9718001 29.0286912,55.9744119 C34.3857104,55.9848591 39.7432566,56.0036641 45.1002759,55.9697106 C50.794546,55.9336677 54.8863476,52.004993 54.92745,46.6016941 C54.9690794,41.0484776 50.8778048,37.0471948 45.0597004,37.0111519 C39.878157,36.9787655 34.6966136,37.0043612 29.5150701,37.0033165 L29.5150701,37.0033165 Z" id="Fill-1"></path>
                        <path d="M10.7460025,67.8845054 C13.0536218,65.4300426 14.7612709,63.8632966 16.1646186,62.0677358 C18.7015431,58.8214253 18.3200872,55.0385653 15.4184326,52.6365392 C12.7547158,50.4315481 8.90023076,50.516824 6.34712001,52.8383412 C3.59491842,55.3394144 3.4103952,59.1593509 5.96890136,62.3357457 C7.40893784,64.1228319 8.96335713,65.8214643 10.7460025,67.8845054 L10.7460025,67.8845054 Z M11.238604,73 C8.00189403,69.8463808 4.95132595,67.3310066 2.47429056,64.3553544 C-1.30843545,59.8103079 -0.628073516,53.6593203 3.65642616,49.810782 C7.75856078,46.1269691 13.9767775,46.0559941 18.1576852,49.6460565 C22.5592654,53.4252089 23.3469961,59.4416618 19.6462804,64.1519635 C17.2604275,67.188527 14.31507,69.8003 11.238604,73 L11.238604,73 Z" id="Fill-4"></path>
                        <path d="M47.7460025,20.8840142 C50.0541614,18.4295698 51.7612709,16.8633653 53.1646186,15.0678179 C55.7015431,11.8210022 55.3200872,8.03817058 52.4189721,5.63669221 C49.7552553,3.43118803 45.9002308,3.51699295 43.34712,5.83796301 C40.5949184,8.33954712 40.4103952,12.1594549 42.9689014,15.3358259 C44.4089378,17.1228986 45.9633571,18.8215182 47.7460025,20.8840142 L47.7460025,20.8840142 Z M48.238604,26 C45.001894,22.8464044 41.9513259,20.3310492 39.4742906,17.3548897 C35.6915646,12.8098774 36.3719265,6.65893598 40.6564262,2.81095619 C44.7585608,-0.873358665 50.9767775,-0.943803443 55.1576852,2.64623194 C59.5592654,6.42482627 60.3469961,12.441234 56.6462804,17.1520299 C54.2604275,20.188041 51.31507,22.800324 48.238604,26 L48.238604,26 Z" id="Fill-6"></path>
                    </g>
                </g>
            </g>
        </g>
    </g>
</svg>