<?xml version="1.0" encoding="UTF-8"?>
<svg width="78px" height="64px" viewBox="0 0 78 64" version="1.1" xmlns="http://www.w3.org/2000/svg" xmlns:xlink="http://www.w3.org/1999/xlink">
    <!-- Generator: sketchtool 63.1 (101010) - https://sketch.com -->
    <title>F4B8B8D7-1A73-4B77-9E2F-27BD8A02A660</title>
    <desc>Created with sketchtool.</desc>
    <g id="Pages" stroke="none" stroke-width="1" fill="none" fill-rule="evenodd">
        <g id="1.-Landing" transform="translate(-255.000000, -789.000000)" fill="#4B4B4D">
            <g id="2-Visuals" transform="translate(255.000000, 788.000000)">
                <g id="Icon/Visuals">
                    <g id="Icon">
                        <path d="M73.9044,55.5359 L59.9824,40.5349 L50.8654,49.8659 L34.4324,33.1259 L13.6764,54.3099 L13.6764,20.9879 C13.6764,19.3339 15.0054,17.9879 16.6384,17.9879 L70.9424,17.9879 C72.5764,17.9879 73.9044,19.3339 73.9044,20.9879 L73.9044,55.5359 Z M71.0644,60.9879 L70.9424,60.9879 L16.6384,60.9879 L16.5384,60.9879 C15.4634,60.9879 14.5234,60.4139 14.0004,59.5569 L21.9624,51.5329 L21.9664,51.5279 L34.4354,38.8019 L50.8724,55.5449 L59.9094,46.2959 L63.0084,49.6359 L73.0004,60.2669 C72.4784,60.7149 71.8034,60.9879 71.0644,60.9879 L71.0644,60.9879 Z M58.5984,5.1029 C60.1764,4.6729 61.8034,5.6269 62.2264,7.2239 L64.0164,13.9879 L25.8584,13.9879 L58.5984,5.1029 Z M9.7274,20.9879 L9.7274,44.4659 L4.0514,23.0119 C3.6284,21.4149 4.5684,19.7659 6.1454,19.3379 L10.2974,18.2109 C9.9314,19.0629 9.7274,20.0019 9.7274,20.9879 L9.7274,20.9879 Z M70.9424,13.9879 L68.1044,13.9879 L66.0414,6.1889 C65.0544,2.4599 61.2584,0.2409 57.5764,1.2389 L5.1234,15.4739 L5.1234,15.4739 C1.4424,16.4729 -0.7496,20.3199 0.2364,24.0479 L9.6914,59.7879 C10.5184,62.9119 13.3174,64.9759 16.3684,64.9759 C16.3774,64.9759 16.3854,64.9749 16.3944,64.9749 C16.4754,64.9779 16.5554,64.9879 16.6384,64.9879 L70.9424,64.9879 C74.7534,64.9879 77.8534,61.8479 77.8534,57.9879 L77.8534,20.9879 C77.8534,17.1279 74.7534,13.9879 70.9424,13.9879 L70.9424,13.9879 Z" id="Fill-1"></path>
                        <path d="M49.5002,34.988 C47.5702,34.988 46.0002,33.418 46.0002,31.488 C46.0002,29.558 47.5702,27.988 49.5002,27.988 C51.4302,27.988 53.0002,29.558 53.0002,31.488 C53.0002,33.418 51.4302,34.988 49.5002,34.988 M49.5002,23.988 C45.3642,23.988 42.0002,27.352 42.0002,31.488 C42.0002,35.624 45.3642,38.988 49.5002,38.988 C53.6362,38.988 57.0002,35.624 57.0002,31.488 C57.0002,27.352 53.6362,23.988 49.5002,23.988" id="Fill-4"></path>
                    </g>
                </g>
            </g>
        </g>
    </g>
</svg>